<?xml version="1.0" encoding="UTF-8" standalone="no"?>
<svg
   xmlns:svg="http://www.w3.org/2000/svg"
   xmlns="http://www.w3.org/2000/svg"
   xmlns:oryx="http://www.b3mn.org/oryx"
   version="1.0">
  <g>
	<!--<circle cx="0" cy="0" r="4" stroke="black" stroke-width="0" fill="#4F81BD"/>  -->
	<g
       id="g2989"
       transform="scale(0.2)" >
      <path
         id="path2991"
         d="M 0,0"
         style="fill:none;stroke:#000000;stroke-width:1.86613548px;stroke-linecap:butt;stroke-linejoin:miter;stroke-miterlimit:4;stroke-opacity:1;stroke-dasharray:none"
         />
      <path
         id="path2993"
         d="m 41.441208,59.664325 0,-32.554355 -13.475887,-6.27366 -0.207487,57.81825 z"
         style="fill:#ffc000;fill-opacity:1;fill-rule:evenodd;stroke:none"
         />
      <path
         id="path2995"
         d="m 6.8186,19.1408 c 0,-7.46046 12.64663,-13.56446 28.195781,-13.56446 l 0,0 c 15.756258,0 28.195473,6.104 28.195473,13.56446 0,0 0,0 0,0 l 0,0 c 0,7.63006 -12.439215,13.56447 -28.195473,13.56447 0,0 0,0 0,0 l 0,0 c -15.549151,0 -28.195781,-5.93441 -28.195781,-13.56447 0,0 0,0 0,0 z"
         style="fill:#ffc000;fill-opacity:1;fill-rule:evenodd;stroke:none"
         />
      <path
         id="path2997"
         d="m 23.40427,13,71496 c 0,-1.35562 4.561051,-2.71285 9.95136,-2.71285 l 0,0 c 5.597643,0 9.951434,1.35563 9.951434,2.71285 0,0 0,0 0,0 l 0,0 c 0,1.5271 -4.353791,2.71292 -9.951434,2.71292 0,0 0,0 0,0 l 0,0 c -5.390309,0 -9.95136,-1.18617 -9.95136,-2.71292 0,0 0,0 0,0 z"
         style="fill:#ffffff;fill-opacity:1;fill-rule:evenodd;stroke:none"
         />
    </g>
    <text id="nameText" x="24" y="4" oryx:align="middle left"></text> 		
  </g>
</svg>
